<svg xmlns="http://www.w3.org/2000/svg" xmlns:xlink="http://www.w3.org/1999/xlink" width="500" zoomAndPan="magnify" viewBox="0 0 375 374.999991" height="500" preserveAspectRatio="xMidYMid meet" version="1.2"><defs><clipPath id="6d3d127e09"><path d="M 40 37.5 L 334 37.5 L 334 331 L 40 331 Z M 40 37.5 "/></clipPath></defs><g id="292900f3f2"><g clip-rule="nonzero" clip-path="url(#6d3d127e09)"><path style=" stroke:none;fill-rule:nonzero;fill:#2bb673;fill-opacity:1;" d="M 187.035156 37.578125 C 253.875 38.203125 311.625 82.871094 328.652344 147.4375 C 346.5625 215.355469 312.1875 288.03125 247.78125 316.570312 C 200.714844 337.421875 154.628906 334.222656 110.203125 308.019531 C 109.09375 307.363281 107.230469 307.179688 106.015625 307.613281 C 86.796875 314.503906 67.628906 321.53125 48.449219 328.527344 C 48.0625 328.667969 47.667969 328.957031 47.292969 328.933594 C 45.570312 328.828125 43.410156 329.1875 42.292969 328.285156 C 41.523438 327.660156 41.710938 325.039062 42.308594 323.671875 C 46.253906 314.59375 50.421875 305.613281 54.527344 296.609375 C 58.503906 287.882812 62.441406 279.140625 66.519531 270.460938 C 67.375 268.632812 67.183594 267.355469 66.066406 265.691406 C 28.566406 209.839844 33.195312 137.5 77.765625 87.109375 C 100.914062 60.9375 130.078125 45.28125 164.546875 39.699219 C 171.964844 38.5 179.535156 38.257812 187.035156 37.578125 Z M 236.832031 265.605469 C 239.769531 264.90625 242.546875 264.703125 244.90625 263.601562 C 255.839844 258.503906 263.660156 250.171875 268.40625 239.183594 C 270.753906 233.753906 270.003906 228.203125 265.429688 224.085938 C 255.351562 215.011719 244.574219 206.835938 232.363281 200.773438 C 225.914062 197.566406 218.246094 199.164062 213.386719 204.488281 C 211.371094 206.699219 209.425781 208.988281 207.589844 211.351562 C 205.914062 213.507812 203.75 214.085938 201.265625 213.570312 C 199.445312 213.183594 197.679688 212.636719 195.957031 211.929688 C 184.515625 207.246094 175.242188 199.660156 167.34375 190.292969 C 162.289062 184.296875 158.386719 177.699219 156.980469 169.828125 C 156.414062 166.664062 157.214844 164.183594 159.871094 162.253906 C 161.957031 160.734375 163.917969 159.050781 165.925781 157.421875 C 172.792969 151.855469 174.324219 146.265625 170.386719 138.324219 C 164.414062 126.28125 156.226562 115.773438 146.433594 106.609375 C 141.148438 101.660156 133.625 100.851562 127.804688 104.75 C 121.832031 108.753906 116.132812 113.246094 110.6875 117.953125 C 105.089844 122.796875 103.761719 129.269531 105.527344 136.320312 C 108.890625 149.765625 115.007812 162.078125 122.121094 173.816406 C 147.132812 215.085938 182.265625 244.601562 226.902344 262.828125 C 230.097656 264.132812 233.589844 264.71875 236.832031 265.605469 Z M 236.832031 265.605469 "/></g><path style=" stroke:none;fill-rule:nonzero;fill:#ffffff;fill-opacity:1;" d="M 236.832031 265.605469 C 233.589844 264.71875 230.097656 264.132812 226.902344 262.828125 C 182.265625 244.601562 147.132812 215.085938 122.121094 173.816406 C 115.007812 162.078125 108.890625 149.765625 105.527344 136.320312 C 103.761719 129.269531 105.089844 122.796875 110.6875 117.953125 C 116.136719 113.246094 121.832031 108.753906 127.804688 104.75 C 133.625 100.851562 141.148438 101.660156 146.433594 106.609375 C 156.226562 115.777344 164.414062 126.28125 170.386719 138.328125 C 174.324219 146.265625 172.792969 151.855469 165.925781 157.425781 C 163.917969 159.050781 161.957031 160.734375 159.871094 162.253906 C 157.214844 164.183594 156.414062 166.664062 156.976562 169.828125 C 158.386719 177.699219 162.285156 184.296875 167.34375 190.292969 C 175.242188 199.660156 184.515625 207.246094 195.957031 211.929688 C 197.675781 212.636719 199.445312 213.183594 201.265625 213.570312 C 203.75 214.085938 205.914062 213.507812 207.589844 211.351562 C 209.425781 208.988281 211.367188 206.699219 213.386719 204.488281 C 218.246094 199.164062 225.914062 197.566406 232.363281 200.773438 C 244.574219 206.835938 255.351562 215.011719 265.429688 224.085938 C 270.003906 228.203125 270.753906 233.753906 268.40625 239.183594 C 263.660156 250.171875 255.839844 258.503906 244.90625 263.601562 C 242.546875 264.703125 239.769531 264.90625 236.832031 265.605469 Z M 236.832031 265.605469 "/></g></svg>